/* XPM */
static char *_262dd56cef64ac3836be87cd2909a4dOcH1OzONxT43tALN[] = {
/* columns rows colors chars-per-pixel */
"30 18 24 1 ",
"  c #313131",
". c gray21",
"X c #393939",
"o c gray24",
"O c #860000",
"+ c #880000",
"@ c #8E0000",
"# c #9E0000",
"$ c #AA0000",
"% c #AD0000",
"& c #B00000",
"* c #B83D3D",
"= c #A15656",
"- c #BE8E8E",
"; c gray80",
": c #D7D7D7",
"> c gainsboro",
", c gray88",
"< c #EAEAEA",
"1 c #ECECEC",
"2 c gray94",
"3 c gray96",
"4 c #F9F9F9",
"5 c white",
/* pixels */
"552255225522552255225522552255",
"552255225522551255225522552255",
"22552255225522X522552255225522",
"22552255225521X522552255225522",
"5522552255225< o55225522552255",
"55225522552255@155225522552255",
"22552255225522O,22552255225522",
"2255225522552%OO22552255225522",
"5522552255225@+O15225522552255",
"552255225522&OOOO5225522552255",
"225522552255OOOOO>552255225522",
"22552255225$OO.*OO552255225522",
"55225522552OO;X1O=:25522552255",
"5522552255#OO:X2@O+25522552255",
"2255225521+422X522-:<255225522",
"22552255215522o521552255225522",
"552255225522551255225522552255",
"443344334433443344334433443344"
};
